<svg width="400" height="400" viewBox="0 0 400 400" fill="none" xmlns="http://www.w3.org/2000/svg">
  <!-- 山峰背景 - 来自用户提供的图片灵感 -->
  <g opacity="0.3">
    <path d="M100 250C100 250 150 180 200 150C250 120 300 180 350 200C350 200 320 250 300 250H100Z" fill="#E8F4F8"/>
    <path d="M80 280C80 280 130 220 180 200C230 180 280 220 330 240C330 240 300 280 280 280H80Z" fill="#D4E8F0"/>
    <path d="M50 300C50 300 120 250 180 230C240 210 300 250 370 280C370 280 340 300 320 300H50Z" fill="#C1E0EA"/>
  </g>
  
  <!-- 主要圆形背景 -->
  <circle cx="200" cy="200" r="150" fill="url(#grad1)"/>
  
  <!-- 渐变定义 -->
  <defs>
    <linearGradient id="grad1" x1="0%" y1="0%" x2="100%" y2="100%">
      <stop offset="0%" style="stop-color:#4F46E5;stop-opacity:1" />
      <stop offset="50%" style="stop-color:#7C3AED;stop-opacity:1" />
      <stop offset="100%" style="stop-color:#2563EB;stop-opacity:1" />
    </linearGradient>
  </defs>
  
  <!-- 望远镜图标 (代表"远见") -->
  <g transform="translate(200, 200)">
    <!-- 望远镜主体 -->
    <rect x="-40" y="-15" width="80" height="30" rx="5" fill="white" opacity="0.9"/>
    <rect x="-50" y="-10" width="20" height="20" rx="3" fill="white" opacity="0.9"/>
    <circle cx="-40" cy="0" r="8" fill="#E8F4F8"/>
    <circle cx="40" cy="0" r="12" fill="white" opacity="0.95"/>
    <circle cx="40" cy="0" r="8" fill="#E8F4F8"/>
    
    <!-- 装饰线条 -->
    <line x1="-25" y1="-15" x2="-25" y2="15" stroke="#4F46E5" stroke-width="2"/>
    <line x1="0" y1="-15" x2="0" y2="15" stroke="#4F46E5" stroke-width="2"/>
    <line x1="25" y1="-15" x2="25" y2="15" stroke="#4F46E5" stroke-width="2"/>
  </g>
  
  <!-- 装饰性星星 (代表"预见") -->
  <circle cx="120" cy="120" r="4" fill="white" opacity="0.8"/>
  <circle cx="280" cy="130" r="3" fill="white" opacity="0.8"/>
  <circle cx="150" cy="280" r="3" fill="white" opacity="0.8"/>
  <circle cx="270" cy="260" r="4" fill="white" opacity="0.8"/>
</svg>

